<svg xmlns="http://www.w3.org/2000/svg" xmlns:xlink="http://www.w3.org/1999/xlink" viewBox="0 0 148 62" width="5in" height="2.147in"><symbol id="S3" viewBox="-600 -600 1200 1200"><path d="M0-500c100 250 355 400 355 685a150 150 0 0 1-300 0 10 10 0 0 0-20 0c0 200 50 215 95 315h-260c45-100 95-115 95-315a10 10 0 0 0-20 0 150 150 0 0 1-300 0c0-285 255-435 355-685Z" fill="#000"/></symbol><symbol id="F1" viewBox="-600 -600 1200 1200"><path d="M-250-320v-140h450L-110-80c10-10 60-40 110-40 200 0 250 120 250 270 0 200-80 310-280 310s-230-160-230-160" stroke-width="80" stroke-linecap="square" stroke-miterlimit="1.5" fill="none"/></symbol><rect width="70" height="60" x="2" y="1" rx="6" ry="6" fill="white" stroke="black"/><use xlink:href="#F1" height="32" width="32" x="7" y="16" stroke="#000"/><use xlink:href="#S3" height="32" width="32" x="32" y="16"/><symbol id="S0" viewBox="-600 -600 1200 1200"><path d="M30 150c5 235 55 250 100 350h-260c45-100 95-115 100-350a10 10 0 0 0-20 0 210 210 0 1 1-74-201 10 10 0 0 0 14-14 230 230 0 1 1 220 0 10 10 0 0 0 14 14 210 210 0 1 1-74 201 10 10 0 0 0-20 0Z" fill="#000"/></symbol><symbol id="F0" viewBox="-600 -600 1200 1200"><path d="M-225-225c-20-40 25-235 225-235s225 135 225 235c0 200-450 385-450 685h450V300" stroke-width="80" stroke-linecap="square" stroke-miterlimit="1.5" fill="none"/></symbol><rect width="70" height="60" x="76" y="1" rx="6" ry="6" fill="white" stroke="black"/><use xlink:href="#F0" height="32" width="32" x="82" y="16" stroke="#000"/><use xlink:href="#S0" height="32" width="32" x="107" y="16"/></svg>