<svg xmlns="http://www.w3.org/2000/svg" xmlns:xlink="http://www.w3.org/1999/xlink" viewBox="0 0 72 62" width="2.5in" height="2.147in"><symbol id="S0" viewBox="-600 -600 1200 1200"><path d="M30 150c5 235 55 250 100 350h-260c45-100 95-115 100-350a10 10 0 0 0-20 0 210 210 0 1 1-74-201 10 10 0 0 0 14-14 230 230 0 1 1 220 0 10 10 0 0 0 14 14 210 210 0 1 1-74 201 10 10 0 0 0-20 0Z" fill="#000"/></symbol><symbol id="F6" viewBox="-600 -600 1200 1200"><path d="M-1-50a205 205 0 1 1 2 0h-2a255 255 0 1 0 2 0Z" stroke-width="80" stroke-linecap="square" stroke-miterlimit="1.5" fill="none"/></symbol><rect width="70" height="60" x="1" y="1" rx="6" ry="6" fill="white" stroke="black"/><use xlink:href="#F6" height="32" width="32" x="7" y="16" stroke="#000"/><use xlink:href="#S0" height="32" width="32" x="32" y="16"/></svg>